<svg xmlns="http://www.w3.org/2000/svg" xmlns:xlink="http://www.w3.org/1999/xlink" width="25.297985076904297" height="19.2978515625" viewBox="0 0 25.297985076904297 19.2978515625" fill="none">
<path   fill="rgba(51, 51, 51, 1.00)"  d="M3.65 -7.89762e-05L21.648 -7.89762e-05C23.6638 -7.89762e-05 25.298 1.63404 25.298 3.64983L25.298 15.648C25.298 17.6638 23.6638 19.2979 21.648 19.2979L3.65 19.2979C1.63416 19.2979 -7.7486e-07 17.6638 -7.7486e-07 15.648L-7.7486e-07 3.64983C-7.7486e-07 1.63404 1.63416 -7.89762e-05 3.65 -7.89762e-05ZM3.65 1.29988C2.35213 1.29988 1.3 2.35199 1.3 3.64983L1.3 15.648C1.3 16.9458 2.35213 17.9979 3.65 17.9979L21.648 17.9979C22.9459 17.9979 23.998 16.9458 23.998 15.648L23.998 3.64983C23.998 2.35199 22.9459 1.29988 21.648 1.29988L3.65 1.29988Z">
</path>
<path    stroke="rgba(51, 51, 51, 1.00)" stroke-width="1.3"    d="M0.649998 5.1499L11.31 10.4797C11.5182 10.5837 11.7335 10.6662 11.96 10.7197C12.1866 10.7731 12.4173 10.7997 12.65 10.7997C12.8826 10.7997 13.1134 10.7731 13.34 10.7197C13.5664 10.6662 13.7818 10.5837 13.99 10.4797L24.6499 5.1499">
</path>
</svg>
