<svg xmlns="http://www.w3.org/2000/svg" xmlns:xlink="http://www.w3.org/1999/xlink" width="30.753129959106445" height="35.87420654296875" viewBox="0 0 30.753129959106445 35.87420654296875" fill="none">
<path d="M28.6315 3.72237L7.77102 0.0387772C7.72972 0.0315059 7.68827 0.0252547 7.64668 0.0200229C7.60509 0.014791 7.56338 0.0105844 7.52156 0.00740255C7.47975 0.00422073 7.4379 0.00206409 7.39599 0.000932307C7.35407 -0.000199475 7.31214 -0.000300892 7.27023 0.000628054C7.22832 0.0015567 7.18644 0.00351082 7.14462 0.00648979C7.1028 0.00946847 7.06107 0.0134778 7.01944 0.0185176C6.97782 0.0235462 6.93635 0.029595 6.89502 0.036663C6.85368 0.0437313 6.81255 0.0518086 6.77162 0.0608946C6.7307 0.0699704 6.69002 0.0800546 6.64958 0.0911482C6.60914 0.102231 6.56899 0.114296 6.52914 0.127343C6.48931 0.140402 6.4498 0.154426 6.41064 0.169417C6.37148 0.184407 6.33272 0.200348 6.29435 0.217239C6.25598 0.234141 6.21804 0.251972 6.18054 0.270731C6.14303 0.289481 6.10602 0.309142 6.06949 0.329717C6.03296 0.350292 5.99694 0.371753 5.96147 0.3941C5.92599 0.416437 5.89108 0.439637 5.85672 0.463704C5.82239 0.487759 5.78866 0.512643 5.75554 0.538353C5.72242 0.564062 5.68995 0.590568 5.65813 0.61787C5.62631 0.645182 5.59519 0.673252 5.56474 0.70208C5.5343 0.73092 5.50459 0.760485 5.4756 0.790775C5.44659 0.821065 5.41838 0.852051 5.39091 0.88373C5.36344 0.915409 5.33676 0.947739 5.31088 0.98072C5.285 1.01371 5.25993 1.04732 5.2357 1.08154C5.21147 1.11575 5.1881 1.15054 5.16557 1.18591C5.14303 1.22128 5.1214 1.25717 5.10064 1.29359C5.07987 1.33002 5.06003 1.36693 5.04108 1.40433C5.02213 1.44174 5.0041 1.47958 4.98701 1.51787C4.96992 1.55616 4.95378 1.59484 4.93858 1.63391C4.92338 1.67299 4.90916 1.71242 4.8959 1.75221C4.88264 1.79199 4.87037 1.83206 4.85908 1.87244C4.84779 1.91283 4.83749 1.95346 4.8282 1.99433C4.81889 2.03523 4.81061 2.07631 4.80333 2.1176L0.0386797 29.184C0.0314191 29.2253 0.0251735 29.2668 0.0199414 29.3084C0.0147202 29.3501 0.0105242 29.3919 0.00735337 29.4337C0.00417156 29.4755 0.00202529 29.5173 0.000914588 29.5592C-0.000206501 29.6012 -0.00029692 29.6432 0.000642717 29.6851C0.00158236 29.7271 0.00355204 29.7691 0.00655241 29.8109C0.00955278 29.8527 0.0135777 29.8945 0.0186284 29.9361C0.0236889 29.9777 0.0297641 30.0192 0.0368542 30.0605C0.0439437 30.102 0.0520423 30.1432 0.0611497 30.184C0.0702572 30.225 0.0803683 30.2657 0.0914833 30.3062C0.102587 30.3467 0.114685 30.3868 0.127775 30.4267C0.140854 30.4665 0.154905 30.5059 0.169927 30.5452C0.18495 30.5844 0.200929 30.6232 0.217862 30.6616C0.234797 30.6999 0.252659 30.7378 0.27145 30.7753C0.290242 30.813 0.309942 30.8499 0.330548 30.8865C0.351167 30.923 0.372664 30.959 0.395043 30.9946C0.417423 31.03 0.440662 31.0649 0.464759 31.0993C0.488858 31.1336 0.513783 31.1674 0.539536 31.2005C0.565289 31.2337 0.591838 31.266 0.619182 31.2979C0.646536 31.3298 0.674649 31.3608 0.70352 31.3913C0.732401 31.4217 0.762009 31.4513 0.792343 31.4803C0.822676 31.5093 0.853703 31.5377 0.885426 31.565C0.917159 31.5924 0.949536 31.6192 0.98256 31.6451C1.0156 31.6709 1.04924 31.6961 1.08351 31.7202C1.11777 31.7444 1.1526 31.7676 1.18801 31.7902C1.22343 31.8128 1.25937 31.8344 1.29584 31.8551C1.33231 31.8757 1.36927 31.8956 1.40672 31.9147C1.44416 31.9336 1.48205 31.9515 1.52038 31.9686C1.55871 31.9858 1.59744 32.0018 1.63656 32.017C1.67568 32.0322 1.71515 32.0463 1.75496 32.0594C1.79479 32.0727 1.83491 32.0849 1.87532 32.0963C1.91574 32.1075 1.95642 32.1177 1.99734 32.127C2.03826 32.1362 2.07937 32.1445 2.12071 32.1517L22.9811 35.8353C23.0225 35.8425 23.0639 35.8489 23.1056 35.8542C23.1472 35.8595 23.1889 35.8636 23.2308 35.8668C23.2726 35.87 23.3146 35.8721 23.3566 35.8732C23.3985 35.8744 23.4405 35.8745 23.4824 35.8736C23.5244 35.8728 23.5662 35.8708 23.6082 35.8678C23.6501 35.8648 23.6919 35.8608 23.7336 35.8558C23.7752 35.8508 23.8167 35.8447 23.8582 35.8375C23.8995 35.8305 23.9406 35.8225 23.9816 35.8134C24.0226 35.8042 24.0633 35.7941 24.1038 35.7831C24.1442 35.772 24.1844 35.7599 24.2244 35.7467C24.2642 35.7338 24.3037 35.7197 24.343 35.7046C24.382 35.6897 24.4209 35.6737 24.4594 35.6567C24.4978 35.6399 24.5358 35.622 24.5734 35.6032C24.6109 35.5845 24.6479 35.5648 24.6846 35.5441C24.7211 35.5235 24.7571 35.502 24.7927 35.4796C24.8281 35.4572 24.863 35.4339 24.8974 35.4099C24.9317 35.3857 24.9655 35.3609 24.9986 35.3351C25.0318 35.3093 25.0643 35.2828 25.0962 35.2554C25.1279 35.228 25.1591 35.2 25.1895 35.1711C25.22 35.1421 25.2498 35.1125 25.2787 35.0822C25.3077 35.052 25.3359 35.0209 25.3635 34.989C25.391 34.9573 25.4176 34.925 25.4435 34.892C25.4693 34.8588 25.4943 34.8252 25.5187 34.7909C25.5428 34.7566 25.5662 34.7217 25.5888 34.6863C25.6112 34.6509 25.633 34.6151 25.6538 34.5785C25.6745 34.542 25.6944 34.505 25.7133 34.4676C25.7322 34.4301 25.7502 34.3921 25.7672 34.3538C25.7842 34.3156 25.8004 34.2768 25.8156 34.2376C25.8306 34.1985 25.8449 34.1591 25.8582 34.1192C25.8713 34.0793 25.8837 34.0393 25.895 33.9988C25.9062 33.9583 25.9165 33.9176 25.9258 33.8767C25.9349 33.8357 25.9431 33.7946 25.9504 33.7533L30.7151 6.68686C30.7221 6.64556 30.7284 6.60409 30.7337 6.56248C30.7388 6.52088 30.7428 6.47917 30.746 6.43734C30.7492 6.39554 30.7513 6.35367 30.7524 6.31174C30.7534 6.26983 30.7534 6.22792 30.7524 6.18599C30.7514 6.14408 30.7494 6.10221 30.7465 6.06038C30.7433 6.01856 30.7393 5.97684 30.7342 5.93522C30.729 5.89361 30.7229 5.85213 30.7159 5.81081C30.7087 5.76949 30.7005 5.72837 30.6914 5.68745C30.6821 5.64653 30.672 5.60585 30.661 5.56543C30.6497 5.52501 30.6377 5.48489 30.6246 5.44506C30.6115 5.40524 30.5974 5.36576 30.5823 5.32662C30.5673 5.2875 30.5513 5.24875 30.5343 5.2104C30.5173 5.17206 30.4994 5.13415 30.4806 5.09667C30.4617 5.05919 30.442 5.02221 30.4215 4.9857C30.4007 4.94921 30.3792 4.91324 30.357 4.87778C30.3346 4.84234 30.3112 4.80746 30.2872 4.77315C30.263 4.73885 30.238 4.70517 30.2124 4.67208C30.1864 4.63899 30.1598 4.60656 30.1326 4.57478C30.1052 4.54301 30.077 4.51192 30.0482 4.48153C30.0194 4.45113 29.9897 4.42147 29.9595 4.39251C29.929 4.36359 29.8981 4.3354 29.8664 4.30798C29.8346 4.28056 29.8022 4.25394 29.7692 4.22809C29.7362 4.20228 29.7026 4.17728 29.6683 4.15309C29.634 4.12891 29.5991 4.10559 29.5637 4.08312C29.5283 4.06065 29.4925 4.03906 29.4559 4.01835C29.4194 3.99766 29.3826 3.97787 29.3451 3.95897C29.3076 3.94007 29.2698 3.92212 29.2316 3.90507C29.1931 3.88805 29.1545 3.87197 29.1155 3.85684C29.0762 3.84172 29.0368 3.82754 28.9971 3.81435C28.9572 3.80115 28.917 3.78895 28.8767 3.77772C28.8363 3.76649 28.7956 3.75626 28.7548 3.74703C28.7138 3.73781 28.6728 3.72958 28.6315 3.72237ZM16.5749 18.5064C16.5717 18.5248 16.568 18.5431 16.564 18.5612C16.5598 18.5793 16.5555 18.5973 16.5507 18.6154C16.5459 18.6334 16.5406 18.6513 16.535 18.6691C16.5294 18.6869 16.5235 18.7045 16.5171 18.722C16.5107 18.7394 16.5039 18.7569 16.4969 18.774C16.4897 18.7911 16.4822 18.8083 16.4745 18.8251C16.4665 18.8419 16.4583 18.8587 16.4497 18.8752C16.441 18.8917 16.4322 18.9081 16.4229 18.9242C16.4135 18.9404 16.4038 18.9563 16.3939 18.972C16.3838 18.9877 16.3734 19.0032 16.3628 19.0184C16.3521 19.0336 16.3411 19.0487 16.3299 19.0634C16.3185 19.0783 16.3068 19.0927 16.2949 19.107C16.2829 19.1212 16.2706 19.1353 16.2581 19.1491C16.2455 19.1627 16.2326 19.1762 16.2195 19.1894C16.2064 19.2026 16.1929 19.2154 16.1791 19.228C16.1654 19.2407 16.1513 19.2529 16.1372 19.2649C16.1228 19.2769 16.1084 19.2884 16.0936 19.2998C16.0789 19.3112 16.0638 19.3222 16.0486 19.3329C16.0332 19.3437 16.0179 19.3539 16.0021 19.364C15.9864 19.3739 15.9705 19.3836 15.9544 19.393C15.9382 19.4023 15.9219 19.4113 15.9054 19.4199C15.8889 19.4284 15.8723 19.4367 15.8554 19.4446C15.8385 19.4524 15.8214 19.46 15.8041 19.4672C15.787 19.4744 15.7697 19.4811 15.7523 19.4873C15.7347 19.4937 15.7171 19.4998 15.6992 19.5054C15.6815 19.511 15.6637 19.5162 15.6457 19.5211C15.6277 19.5259 15.6096 19.5304 15.5915 19.5344C15.5733 19.5384 15.5551 19.5421 15.5367 19.5453C15.5183 19.5487 15.4999 19.5516 15.4814 19.554C15.463 19.5564 15.4445 19.5584 15.426 19.56C15.4074 19.5617 15.3889 19.5629 15.3703 19.5637C15.3516 19.5645 15.333 19.565 15.3144 19.565C15.2391 19.5649 15.1644 19.5584 15.0902 19.5458L8.44368 18.3718C8.42417 18.367 8.40478 18.3618 8.38551 18.3562C8.36624 18.3504 8.34714 18.3441 8.32816 18.3376C8.30918 18.331 8.29038 18.324 8.27174 18.3164C8.25309 18.3089 8.23463 18.3011 8.21635 18.2926C8.19808 18.2842 8.18003 18.2754 8.16217 18.2663C8.14431 18.2572 8.12668 18.2474 8.10927 18.2373C8.09186 18.2272 8.07471 18.2168 8.0578 18.2061C8.0409 18.1952 8.02425 18.184 8.00786 18.1723C7.99148 18.1606 7.97538 18.1486 7.95956 18.1363C7.94375 18.1239 7.92823 18.1111 7.913 18.098C7.89779 18.0848 7.88289 18.0714 7.8683 18.0576C7.85371 18.0437 7.83947 18.0296 7.82556 18.0152C7.81164 18.0006 7.79806 17.9859 7.78484 17.9707C7.77163 17.9554 7.75877 17.9401 7.74628 17.9244C7.73379 17.9087 7.72166 17.8927 7.70992 17.8763C7.69818 17.86 7.68683 17.8435 7.67587 17.8267C7.6649 17.8099 7.65435 17.7927 7.6442 17.7753C7.63403 17.758 7.62429 17.7404 7.61497 17.7226C7.60563 17.7048 7.59672 17.6869 7.58824 17.6686C7.57976 17.6505 7.57171 17.6321 7.56409 17.6133C7.55648 17.5948 7.5493 17.576 7.54256 17.5571C7.53582 17.5382 7.52954 17.5192 7.52369 17.5C7.51786 17.4806 7.51248 17.4612 7.50755 17.4418C7.50263 17.4224 7.49816 17.4027 7.49416 17.383C7.49016 17.3633 7.48662 17.3436 7.48354 17.3238C7.48047 17.3039 7.47786 17.2841 7.47571 17.264C7.47358 17.244 7.47192 17.224 7.47071 17.204C7.46951 17.184 7.46879 17.1638 7.46855 17.1438C7.4683 17.1236 7.46852 17.1034 7.46921 17.0834C7.4699 17.0634 7.47107 17.0434 7.47272 17.0233C7.47435 17.0033 7.47645 16.9833 7.47903 16.9633C7.4816 16.9434 7.48465 16.9236 7.48815 16.9039C7.49166 16.884 7.49565 16.8643 7.50009 16.8448C7.50452 16.8251 7.50942 16.8057 7.51477 16.7863C7.52014 16.7669 7.52594 16.7477 7.5322 16.7286C7.53846 16.7096 7.54515 16.6905 7.55231 16.6718C7.55946 16.6531 7.56705 16.6343 7.57507 16.6159C7.5831 16.5975 7.59155 16.5794 7.60044 16.5613C7.60931 16.5432 7.61862 16.5254 7.62834 16.5079C7.63806 16.4903 7.64818 16.473 7.65872 16.4559C7.66926 16.4388 7.6802 16.4218 7.69152 16.4053C7.70284 16.3888 7.71457 16.3725 7.72666 16.3563C7.73875 16.3403 7.75123 16.3246 7.76406 16.309C7.7769 16.2935 7.7901 16.2784 7.80365 16.2636C7.8172 16.2488 7.83108 16.2344 7.84532 16.2201C7.85956 16.2059 7.87412 16.1921 7.88899 16.1785C7.90387 16.1651 7.91907 16.1519 7.93457 16.1391C7.95008 16.1265 7.96587 16.114 7.98197 16.102C7.99806 16.0899 8.01441 16.0783 8.03105 16.0669C8.04769 16.0557 8.06457 16.0448 8.08173 16.0344C8.09888 16.024 8.11626 16.0138 8.13387 16.0041C8.15149 15.9945 8.16933 15.9853 8.18738 15.9764C8.20543 15.9677 8.22369 15.9593 8.24214 15.9513C8.26059 15.9433 8.27921 15.9357 8.29802 15.9287C8.31684 15.9216 8.3358 15.915 8.35491 15.9088C8.37401 15.9026 8.39326 15.8969 8.41266 15.8915C8.43205 15.8863 8.45154 15.8815 8.47116 15.8771C8.49078 15.8727 8.51048 15.8688 8.53028 15.8654C8.55007 15.862 8.56993 15.859 8.58987 15.8565C8.60981 15.854 8.62978 15.852 8.64982 15.8504C8.66985 15.8488 8.68992 15.8476 8.71 15.847C8.73009 15.8465 8.75017 15.8464 8.77025 15.8467C8.79035 15.847 8.81042 15.8478 8.83047 15.8489C8.85052 15.8502 8.87054 15.852 8.89052 15.8542L15.5338 17.0217C15.5545 17.0254 15.5751 17.0294 15.5955 17.0341C15.616 17.0387 15.6363 17.0438 15.6565 17.0494C15.6768 17.055 15.6968 17.0613 15.7167 17.0679C15.7367 17.0744 15.7564 17.0816 15.776 17.0892C15.7955 17.0967 15.8149 17.1049 15.8341 17.1133C15.8533 17.1218 15.8723 17.1308 15.8909 17.1402C15.9097 17.1497 15.9282 17.1596 15.9464 17.17C15.9646 17.1804 15.9826 17.1912 16.0003 17.2025C16.018 17.2138 16.0355 17.2255 16.0528 17.2376C16.0698 17.2496 16.0866 17.2621 16.1032 17.2751C16.1197 17.2881 16.1359 17.3015 16.1518 17.3151C16.1676 17.3289 16.1832 17.343 16.1984 17.3576C16.2134 17.3722 16.2283 17.3869 16.2427 17.4021C16.2571 17.4173 16.2712 17.433 16.285 17.4489C16.2986 17.4647 16.3119 17.4811 16.3247 17.4976C16.3375 17.5141 16.35 17.531 16.3622 17.5482C16.3742 17.5653 16.3857 17.5829 16.397 17.6007C16.4082 17.6185 16.4189 17.6364 16.4293 17.6547C16.4396 17.6729 16.4493 17.6915 16.4588 17.7102C16.4681 17.729 16.477 17.748 16.4857 17.7673C16.494 17.7865 16.502 17.8059 16.5096 17.8254C16.5169 17.8451 16.524 17.8648 16.5307 17.8848C16.5371 17.9047 16.5432 17.9247 16.5488 17.945C16.5542 17.9654 16.5594 17.9857 16.5638 18.0062C16.5683 18.0266 16.5725 18.0472 16.576 18.0679C16.5795 18.0885 16.5826 18.1094 16.5851 18.1302C16.5875 18.151 16.5895 18.1718 16.5911 18.1928C16.5925 18.2138 16.5935 18.2348 16.5941 18.2557C16.5944 18.2767 16.5944 18.2977 16.594 18.3187C16.5933 18.3397 16.5922 18.3605 16.5906 18.3815C16.589 18.4024 16.5869 18.4233 16.5843 18.4441C16.5816 18.4649 16.5784 18.4857 16.5749 18.5064ZM24.1022 14.6338C24.099 14.6522 24.0954 14.6704 24.0913 14.6886C24.0872 14.7068 24.0829 14.7248 24.0781 14.7427C24.0733 14.7608 24.068 14.7787 24.0625 14.7964C24.0568 14.8141 24.0508 14.8317 24.0446 14.8492C24.0382 14.8666 24.0315 14.8839 24.0244 14.9011C24.0172 14.9183 24.0097 14.9353 24.0018 14.9522C23.994 14.9691 23.9858 14.9858 23.9772 15.0023C23.9685 15.0189 23.9597 15.0352 23.9504 15.0513C23.9411 15.0675 23.9314 15.0834 23.9214 15.0991C23.9115 15.1148 23.9011 15.1302 23.8905 15.1454C23.8798 15.1606 23.8687 15.1757 23.8575 15.1905C23.8461 15.2053 23.8345 15.2197 23.8226 15.2339C23.8106 15.2482 23.7984 15.2623 23.7859 15.276C23.7733 15.2897 23.7605 15.3032 23.7473 15.3164C23.7342 15.3295 23.7207 15.3424 23.707 15.355C23.6932 15.3676 23.6793 15.3799 23.6652 15.3918C23.6508 15.4038 23.6363 15.4154 23.6216 15.4268C23.6069 15.4381 23.5918 15.4491 23.5766 15.4599C23.5614 15.4706 23.546 15.4809 23.5303 15.4908C23.5146 15.5009 23.4986 15.5106 23.4826 15.52C23.4664 15.5293 23.4501 15.5382 23.4337 15.5469C23.4173 15.5554 23.4006 15.5636 23.3838 15.5715C23.3668 15.5794 23.3498 15.587 23.3327 15.5941C23.3154 15.6013 23.2981 15.608 23.2808 15.6145C23.2632 15.6209 23.2456 15.6268 23.2279 15.6324C23.2102 15.638 23.1922 15.6433 23.1743 15.6482C23.1564 15.6531 23.1383 15.6575 23.1202 15.6615C23.1019 15.6656 23.0838 15.6693 23.0655 15.6726C23.0471 15.6758 23.0287 15.6786 23.0103 15.6811C22.9919 15.6835 22.9735 15.6856 22.9549 15.6873C22.9363 15.689 22.9177 15.6903 22.8991 15.6912C22.8806 15.692 22.862 15.6925 22.8434 15.6925C22.7675 15.6926 22.6922 15.6856 22.6176 15.6716L9.32454 13.3253C9.30389 13.3217 9.28333 13.3175 9.26288 13.3129C9.24243 13.3082 9.2221 13.303 9.20191 13.2974C9.18171 13.2917 9.16168 13.2856 9.14178 13.2789C9.12188 13.2723 9.10216 13.2651 9.08262 13.2575C9.06307 13.2499 9.04372 13.2418 9.02458 13.2332C9.00544 13.2247 8.98651 13.2156 8.96781 13.2061C8.9491 13.1967 8.93063 13.1867 8.91243 13.1763C8.89421 13.1659 8.87626 13.1551 8.85858 13.1438C8.8409 13.1325 8.82351 13.1208 8.8064 13.1086C8.7893 13.0965 8.7725 13.084 8.756 13.071C8.7395 13.058 8.72334 13.0447 8.7075 13.0309C8.69167 13.0172 8.67618 13.003 8.66104 12.9885C8.64591 12.974 8.63113 12.9591 8.61671 12.9439C8.6023 12.9286 8.58827 12.9131 8.57462 12.8971C8.56098 12.8812 8.54773 12.865 8.53489 12.8484C8.52203 12.8318 8.5096 12.8149 8.49759 12.7977C8.48556 12.7805 8.47398 12.7631 8.46282 12.7453C8.45166 12.7275 8.44092 12.7095 8.43066 12.6912C8.42038 12.6729 8.41056 12.6544 8.40119 12.6356C8.39182 12.6169 8.38293 12.5979 8.37449 12.5787C8.36605 12.5595 8.35809 12.5401 8.35061 12.5205C8.34313 12.5009 8.33613 12.4811 8.32962 12.4612C8.32311 12.4413 8.31709 12.4212 8.31157 12.4009C8.30604 12.3807 8.30103 12.3604 8.2965 12.3399C8.29196 12.3194 8.28794 12.2988 8.28444 12.2781C8.28091 12.2575 8.2779 12.2367 8.27542 12.2159C8.27292 12.195 8.27094 12.1742 8.26946 12.1532C8.26799 12.1323 8.26703 12.1114 8.26659 12.0904C8.26615 12.0694 8.26621 12.0485 8.2668 12.0275C8.2674 12.0065 8.26848 11.9856 8.2701 11.9647C8.27172 11.9438 8.27383 11.9229 8.27648 11.9021C8.27912 11.8813 8.28227 11.8606 8.28593 11.8399C8.28958 11.8192 8.29374 11.7987 8.2984 11.7782C8.30306 11.7578 8.30824 11.7375 8.3139 11.7173C8.31956 11.6971 8.32572 11.677 8.33237 11.6571C8.33902 11.6372 8.34614 11.6175 8.35377 11.598C8.36137 11.5784 8.36946 11.5591 8.37803 11.5399C8.3866 11.5208 8.39563 11.5019 8.40513 11.4832C8.41463 11.4645 8.42457 11.446 8.43497 11.4278C8.44536 11.4096 8.4562 11.3916 8.46749 11.3739C8.47877 11.3563 8.49048 11.3389 8.50262 11.3218C8.51476 11.3046 8.52731 11.2878 8.54027 11.2714C8.55323 11.2549 8.56658 11.2387 8.58034 11.2229C8.5941 11.207 8.60822 11.1915 8.62274 11.1764C8.63726 11.1613 8.65214 11.1465 8.66737 11.1321C8.68262 11.1177 8.6982 11.1036 8.71412 11.09C8.73005 11.0763 8.74631 11.0631 8.76289 11.0502C8.77946 11.0374 8.79636 11.025 8.81354 11.0129C8.83073 11.0009 8.8482 10.9893 8.86596 10.9782C8.88373 10.967 8.90176 10.9563 8.92003 10.946C8.93832 10.9357 8.95685 10.9259 8.97562 10.9165C8.99438 10.9072 9.01337 10.8983 9.03257 10.8898C9.05178 10.8814 9.07119 10.8735 9.09078 10.866C9.11036 10.8585 9.13014 10.8515 9.15008 10.845C9.17002 10.8385 9.1901 10.8324 9.21033 10.8269C9.23056 10.8214 9.25093 10.8164 9.27142 10.8118C9.2919 10.8073 9.31248 10.8033 9.33316 10.7998C9.35383 10.7963 9.37457 10.7933 9.39541 10.7908C9.41623 10.7883 9.4371 10.7863 9.45803 10.7848C9.47896 10.7833 9.49991 10.7824 9.52087 10.7819C9.54184 10.7815 9.56282 10.7816 9.58378 10.7822C9.60475 10.7827 9.62568 10.7839 9.6466 10.7855C9.66751 10.7871 9.68838 10.7892 9.70919 10.7918C9.72999 10.7945 9.75073 10.7976 9.77138 10.8013L23.0644 13.1492C23.0851 13.1528 23.1057 13.1569 23.1262 13.1615C23.1467 13.1661 23.1671 13.1712 23.1873 13.1768C23.2074 13.1824 23.2276 13.1885 23.2475 13.1951C23.2673 13.2017 23.2872 13.2088 23.3069 13.2163C23.3264 13.2239 23.3458 13.2319 23.365 13.2405C23.3843 13.249 23.4032 13.258 23.4219 13.2674C23.4406 13.2769 23.4592 13.2868 23.4775 13.2972C23.4957 13.3075 23.5137 13.3183 23.5314 13.3296C23.5491 13.3408 23.5665 13.3525 23.5838 13.3646C23.601 13.3767 23.6178 13.3892 23.6344 13.4022C23.6509 13.4151 23.6671 13.4284 23.6831 13.4422C23.6988 13.4559 23.7143 13.47 23.7297 13.4845C23.7448 13.4991 23.7597 13.5139 23.7741 13.5291C23.7885 13.5443 23.8026 13.5599 23.8164 13.5758C23.8301 13.5917 23.8434 13.608 23.8562 13.6245C23.8691 13.6411 23.8815 13.6579 23.8937 13.6751C23.9057 13.6923 23.9174 13.7098 23.9286 13.7277C23.9398 13.7454 23.9506 13.7634 23.961 13.7816C23.9712 13.8 23.9812 13.8185 23.9906 13.8372C23.9999 13.856 24.0089 13.875 24.0174 13.8942C24.0258 13.9134 24.0339 13.9329 24.0414 13.9525C24.0489 13.9721 24.056 13.9918 24.0625 14.0118C24.0689 14.0317 24.075 14.0519 24.0808 14.0722C24.0862 14.0924 24.0913 14.1128 24.0958 14.1333C24.1003 14.1538 24.1045 14.1744 24.108 14.195C24.1115 14.2157 24.1146 14.2365 24.1171 14.2575C24.1197 14.2783 24.1216 14.2992 24.1232 14.3201C24.1247 14.341 24.1256 14.362 24.1261 14.383C24.1266 14.4039 24.1266 14.4249 24.1259 14.446C24.1253 14.467 24.1243 14.488 24.1227 14.5089C24.1211 14.5298 24.1191 14.5507 24.1165 14.5715C24.1138 14.5923 24.1106 14.6131 24.107 14.6338L24.1022 14.6338ZM24.9911 9.58569C24.9879 9.60404 24.9842 9.6223 24.9802 9.64046C24.9761 9.65866 24.9717 9.67674 24.9669 9.69473C24.9621 9.71271 24.9568 9.7306 24.9512 9.74835C24.9456 9.76612 24.9397 9.78376 24.9333 9.80124C24.9269 9.81875 24.9202 9.83609 24.9131 9.8533C24.9059 9.87051 24.8984 9.88755 24.8907 9.90442C24.8827 9.9213 24.8745 9.938 24.8659 9.95451C24.8572 9.97104 24.8484 9.98738 24.8391 10.0035C24.8297 10.0196 24.8201 10.0355 24.8101 10.0512C24.8 10.067 24.7896 10.0824 24.7791 10.0977C24.7683 10.113 24.7573 10.128 24.7461 10.1427C24.7347 10.1575 24.723 10.1721 24.7112 10.1863C24.6991 10.2006 24.6868 10.2146 24.6743 10.2283C24.6617 10.2421 24.6489 10.2555 24.6357 10.2687C24.6226 10.2819 24.6091 10.2948 24.5954 10.3073C24.5816 10.3199 24.5675 10.3322 24.5534 10.3442C24.539 10.3562 24.5246 10.3678 24.5098 10.3792C24.4951 10.3905 24.48 10.4015 24.4648 10.4122C24.4495 10.4229 24.4341 10.4333 24.4184 10.4433C24.4027 10.4533 24.3867 10.463 24.3707 10.4723C24.3545 10.4816 24.3382 10.4906 24.3217 10.4992C24.3052 10.5078 24.2885 10.516 24.2717 10.5239C24.2547 10.5318 24.2377 10.5393 24.2204 10.5464C24.2031 10.5536 24.1858 10.5604 24.1685 10.5667C24.1509 10.5731 24.1333 10.5791 24.1155 10.5847C24.0978 10.5903 24.08 10.5956 24.062 10.6004C24.0439 10.6052 24.0258 10.6097 24.0077 10.6137C23.9895 10.6178 23.9712 10.6214 23.953 10.6247C23.9346 10.6279 23.9161 10.6308 23.8977 10.6332C23.8791 10.6357 23.8607 10.6377 23.8423 10.6393C23.8237 10.641 23.8051 10.6422 23.7866 10.643C23.7678 10.6439 23.7493 10.6443 23.7307 10.6443C23.6554 10.6442 23.5806 10.6378 23.5065 10.6251L10.2134 8.27721C10.1923 8.27411 10.1713 8.27047 10.1503 8.26631C10.1294 8.26216 10.1086 8.25748 10.0878 8.25226C10.0671 8.24707 10.0466 8.24135 10.0262 8.23512C10.0057 8.22891 9.98547 8.22217 9.96539 8.21491C9.9453 8.20767 9.92541 8.19994 9.90571 8.19171C9.88601 8.18347 9.86654 8.17475 9.84727 8.16554C9.82801 8.15633 9.809 8.14664 9.79021 8.13647C9.77144 8.12631 9.75292 8.1157 9.73468 8.10461C9.71644 8.09351 9.69847 8.08198 9.68081 8.07C9.66314 8.05802 9.64578 8.0456 9.62872 8.03275C9.61167 8.01991 9.59496 8.00663 9.57858 7.99294C9.56219 7.97926 9.54615 7.96517 9.53047 7.95067C9.51479 7.93618 9.49948 7.92131 9.48454 7.90607C9.46959 7.89082 9.45505 7.87519 9.44091 7.85921C9.42675 7.84322 9.41299 7.8269 9.39965 7.81023C9.38631 7.79357 9.3734 7.77658 9.36091 7.75925C9.34842 7.74194 9.33636 7.72432 9.32475 7.7064C9.31314 7.68848 9.30199 7.6703 9.29128 7.65182C9.28058 7.63335 9.27034 7.61462 9.26057 7.59562C9.25082 7.57664 9.24153 7.55742 9.23272 7.53798C9.22393 7.51854 9.21562 7.49887 9.20779 7.47899C9.19995 7.45914 9.19263 7.4391 9.18583 7.41886C9.17901 7.39863 9.1727 7.37824 9.1669 7.35768C9.1611 7.33714 9.15581 7.31647 9.15104 7.29565C9.14629 7.27484 9.14204 7.25393 9.13831 7.23288C9.13459 7.21187 9.13141 7.19076 9.12873 7.16957C9.12607 7.1484 9.12394 7.12716 9.12233 7.10586C9.12072 7.08458 9.11965 7.06326 9.11912 7.04193C9.11858 7.02058 9.11858 6.99923 9.11911 6.97788C9.11964 6.95655 9.12069 6.93523 9.12229 6.91393C9.12388 6.89265 9.12601 6.87141 9.12867 6.85022C9.13133 6.82905 9.13451 6.80794 9.13821 6.78691C9.14193 6.7659 9.14616 6.74497 9.15091 6.72415C9.15567 6.70334 9.16096 6.68267 9.16674 6.6621C9.17253 6.64157 9.17883 6.62117 9.18564 6.60092C9.19244 6.58069 9.19976 6.56064 9.20758 6.54077C9.21539 6.52091 9.22371 6.50124 9.2325 6.48178C9.24129 6.46234 9.25056 6.4431 9.26032 6.42411C9.27007 6.40513 9.2803 6.38639 9.29099 6.36791C9.30169 6.34943 9.31283 6.33123 9.32444 6.31331C9.33604 6.29539 9.34808 6.27777 9.36057 6.26045C9.37305 6.24313 9.38596 6.22614 9.3993 6.20945C9.41262 6.19278 9.42637 6.17644 9.44052 6.16046C9.45467 6.14448 9.46921 6.12886 9.48413 6.11358C9.49908 6.09834 9.51437 6.08346 9.53005 6.06895C9.54573 6.05447 9.56175 6.04037 9.57813 6.02667C9.59451 6.01297 9.61122 5.9997 9.62826 5.98683C9.64532 5.97399 9.66266 5.96156 9.68033 5.94955C9.69799 5.93757 9.71595 5.92602 9.73419 5.91492C9.75243 5.90384 9.77094 5.89321 9.78971 5.88304C9.80848 5.87287 9.82749 5.86318 9.84676 5.85395C9.86601 5.84473 9.88549 5.836 9.90519 5.82775C9.92487 5.81952 9.94476 5.81177 9.96484 5.80451C9.98493 5.79727 10.0052 5.79053 10.0256 5.78429C10.046 5.77804 10.0666 5.77232 10.0873 5.7671C10.108 5.7619 10.1288 5.7572 10.1497 5.75304C10.1707 5.74887 10.1917 5.74522 10.2128 5.7421C10.234 5.73899 10.2552 5.7364 10.2764 5.73433C10.2976 5.73228 10.3189 5.73076 10.3403 5.72975C10.3616 5.72876 10.3829 5.72831 10.4043 5.72837C10.4256 5.72845 10.447 5.72906 10.4683 5.73018C10.4896 5.73134 10.5109 5.733 10.5321 5.7352C10.5534 5.73741 10.5745 5.74015 10.5956 5.7434C10.6167 5.74666 10.6377 5.75044 10.6586 5.75475L23.9517 8.10104C23.9724 8.10461 23.993 8.1087 24.0135 8.11328C24.034 8.11786 24.0544 8.12294 24.0747 8.12852C24.0949 8.13413 24.1151 8.14022 24.1351 8.14678C24.1549 8.15335 24.1748 8.16041 24.1943 8.16797C24.2139 8.17551 24.2334 8.18355 24.2526 8.19204C24.2718 8.20056 24.2907 8.20953 24.3096 8.21896C24.3284 8.2284 24.347 8.23831 24.3652 8.24866C24.3835 8.259 24.4014 8.2698 24.4192 8.28104C24.437 8.29228 24.4544 8.30396 24.4717 8.31605C24.4889 8.32816 24.5057 8.34067 24.5223 8.35359C24.5388 8.36652 24.555 8.37984 24.571 8.39357C24.5869 8.40731 24.6024 8.42142 24.6178 8.4359C24.6328 8.45041 24.6477 8.46527 24.6623 8.48048C24.6767 8.4957 24.6908 8.51127 24.7046 8.52719C24.7182 8.54311 24.7315 8.55936 24.7445 8.57594C24.7573 8.59251 24.7699 8.60939 24.7821 8.62658C24.7941 8.64378 24.8058 8.66124 24.817 8.679C24.8282 8.69678 24.839 8.71479 24.8494 8.73308C24.8596 8.75137 24.8695 8.76992 24.879 8.78869C24.8884 8.80748 24.8974 8.82647 24.9059 8.8457C24.9144 8.86492 24.9224 8.88435 24.9299 8.90395C24.9375 8.92357 24.9445 8.94337 24.9511 8.96332C24.9576 8.98328 24.9637 9.00339 24.9693 9.02365C24.9748 9.04393 24.9799 9.0643 24.9845 9.08482C24.989 9.10533 24.9932 9.12595 24.9967 9.14665C25.0002 9.16736 25.0034 9.18815 25.006 9.209C25.0084 9.22987 25.0103 9.25079 25.0119 9.27174C25.0135 9.2927 25.0145 9.31368 25.015 9.33469C25.0153 9.35571 25.0153 9.37672 25.0148 9.39772C25.0142 9.41873 25.0132 9.43971 25.0116 9.46066C25.01 9.48162 25.0079 9.50252 25.0054 9.52337C25.0026 9.54423 24.9994 9.565 24.9959 9.58569L24.9911 9.58569Z"   fill="#BAC8F6" >
</path>
</svg>
