<svg xmlns="http://www.w3.org/2000/svg" xmlns:xlink="http://www.w3.org/1999/xlink" width="33.847808837890625" height="38.012451171875" viewBox="0 0 33.847808837890625 38.012451171875" fill="none">
<path d="M16.3438 21.1908L18.3927 23.3343C18.6846 23.6526 19.0332 23.7287 19.4383 23.563C19.8434 23.3973 20.0531 23.0935 20.0673 22.6514L20.1892 19.7008L22.7894 18.443C23.1865 18.2408 23.3808 17.9328 23.3724 17.519C23.3639 17.1053 23.1437 16.8062 22.7116 16.6219L19.9925 15.6361L19.548 12.6881C19.4909 12.2613 19.2544 11.9922 18.8384 11.8807C18.4225 11.7693 18.0831 11.8841 17.8203 12.2251L15.9613 14.556L13.1136 14.0501C12.6485 13.9941 12.3089 14.1431 12.0947 14.4972C11.8805 14.8513 11.8941 15.215 12.1356 15.5883L13.7586 17.9777L12.3889 20.594C12.1814 20.9843 12.2117 21.3524 12.4797 21.6985C12.7477 22.0446 13.087 22.1528 13.4977 22.0227L16.3438 21.1908ZM13.5791 31.5087L4.59096 32.8037C3.1655 33.0046 1.97753 32.5752 1.02703 31.5154C0.0765367 30.4557 -0.214186 29.2371 0.154763 27.8602L6.82854 2.95332C7.11144 1.89753 7.72977 1.09485 8.68354 0.545275C9.63731 -0.00430214 10.6416 -0.138453 11.6965 0.142819L30.8925 5.28639C31.9483 5.56928 32.7516 6.18779 33.3025 7.1419C33.8533 8.09601 33.9869 9.10017 33.703 10.1543L27.0292 35.0612C26.6606 36.437 25.7996 37.3467 24.4462 37.7906C23.0928 38.2344 21.8494 38.0124 20.7156 37.1243L13.5791 31.5087Z"   fill="#FEDDBD" >
</path>
</svg>
